<?xml version="1.0" encoding="utf-8"?>
<!-- Generator: Adobe Illustrator 27.8.0, SVG Export Plug-In . SVG Version: 6.00 Build 0)  -->
<svg version="1.1" id="Maze" xmlns="http://www.w3.org/2000/svg" xmlns:xlink="http://www.w3.org/1999/xlink" x="0px" y="0px"
	 viewBox="0 0 612 792" style="enable-background:new 0 0 612 792;" xml:space="preserve">
<style type="text/css">
	.st0{fill:#CCCCCC;}
	.st1{fill:#FFF200;stroke:#000000;stroke-miterlimit:10;}
	.st2{fill:#2E3192;stroke:#000000;stroke-miterlimit:10;}
	.st3{fill:none;stroke:#ED1C24;stroke-width:5;stroke-miterlimit:10;}
</style>
<g>
	<polygon class="padding" points="340.4,487.7 340.4,462.3 307.9,462.3 307.9,459.8 305.4,459.8 305.4,429.5 304.8,429.5 304.8,420.5 323.7,420.5 
		323.7,403.8 326.2,403.8 326.2,401.3 357.5,401.3 357.5,403.8 360,403.8 360,439.8 372.2,439.8 372.2,403.8 374.7,403.8 
		374.7,401.3 403.4,401.3 403.4,403.8 405.9,403.8 405.9,451.4 396.9,451.4 396.9,410.3 381.2,410.3 381.2,446.3 378.7,446.3 
		378.7,448.8 360,448.8 360,451.4 351,451.4 351,410.3 332.7,410.3 332.7,429.2 330.2,429.2 330.2,429.5 314.4,429.5 314.4,453.3 
		346.9,453.3 346.9,455.8 349.4,455.8 349.4,487.7 	"/>
	<path class="Wall" d="M401.4,403.3v2.5h2.5v43.6h-5v-41.1h-19.7v36h-2.5v2.5H358v2.5h-5v-41.1h-22.3v18.9h-2.5v0.2h-15.8v27.8H345
		v2.5h2.5v27.9h-5v-25.4h-32.6v-2.5h-2.5v-30.3h-0.6v-5h18.9v-16.7h2.5v-2.5h27.3v2.5h2.5v36h16.3v-36h2.5v-2.5h24.6 M405.4,399.3
		h-4h-24.7h-4v2.5h-2.5v4v32H362v-32v-4h-2.5v-2.5h-4h-27.3h-4v2.5h-2.5v4v12.7h-14.9h-4v4v5v4h0.6v26.3v4h2.5v2.5h4h28.6v21.4v4h4
		h5h4v-4v-27.9v-4H349v-2.5h-4h-28.6v-19.8h11.8h4v-0.2h2.5v-4v-14.9H349v37.1v4h4h5h4V451h14.8h4v-2.5h2.5v-4v-32H395v37.1v4h4h5h4
		v-4V406v-4h-2.5v-2.7H405.4z"/>
</g>
<g>
	<polygon class="padding" points="235,459.6 237.7,459.3 237.7,456.6 279.3,456.6 279.3,425.6 288.3,425.6 288.3,463.1 285.8,463.1 285.8,465.6 
		244.8,465.6 248.5,497.6 239.6,498.6 	"/>
	<path class="Wall" d="M286.3,427.6v33.5h-2.5v2.5h-41.2l3.8,32.3l-5,0.6l-4.1-35.1l2.5-0.3v-2.5h41.5v-31H286.3 M290.3,423.6h-4h-5
		h-4v4v27h-37.5h-4v2.9l-2.9,0.3l0.5,4l4.1,35.1l0.5,4l4-0.5l5-0.6l4-0.5l-0.5-4l-3.2-27.8H284h4V465h2.5v-4v-33.5v-3.9H290.3z"/>
</g>
<path d="M327,381.1v-2.5h-2.5v-18.9h-16.6v-2.5h-2.5v-28.7h9v2h18.9v2l2-0.4l2.3,10.2l20.6,0.6l-0.1,2.5l2.5,0.1l-0.4,15.9h17.3
	v-20.6h9v20.6H406v9h-52.5v-2.6l-2.6-0.1l0.4-16l-18.1-0.5v2h0.2v18.9h50.4v9H327z M331.8,350.7v-1.4l-1.9,0.4l-2.2-10.1h-13.3v11.1
	H331.8z"/>
<path class="Wall" d="M312.4,330.5v2h18.9v2.5l2.4-0.5l2.2,9.8l20.1,0.6l-0.1,2.5l2.5,0.1l-0.4,15.9h21.4v-20.6h5v20.6H404v5h-48.5
	v-2.5l-2.5-0.1l0.4-16l-19.6-0.6l0.1-2.5l-2.4,0.5l-2.2-9.7h-16.9v15.1h18.9v2.5h0.2V374h50.4v5H329v-2.5h-2.5v-18.9h-16.6v-2.5
	h-2.5v-24.7h5 M316.4,326.5h-4h-5h-4v4v24.7v4h2.5v2.5h4h12.6v14.9v4h2.5v2.5h4h52.9h4v-4v-5v-1.7H404h4v-4v-5v-4h-4h-15.6v-16.6v-4
	h-4h-5h-4v4v16.6h-13.3l0.3-11.8l0.1-4l-2.5-0.1l0.1-2.5l-4-0.1l-17-0.5l-1.5-6.7l-0.9-3.9l-1.5,0.3v-1.5h-4h-14.9L316.4,326.5
	L316.4,326.5z M316.4,341.6h9.7l1.5,6.6l0.1,0.5h-11.3L316.4,341.6L316.4,341.6z M335.5,370.1v-14.9v-1.9l13.8,0.4l-0.3,12l-0.1,4
	l2.6,0.1v0.3H335.5L335.5,370.1z"/>
<g>
	<polygon class="padding" points="257.3,431.8 257.3,429.2 257,429.2 257,410.3 224.7,410.3 224.5,410.5 224.3,410.3 224.1,410.3 224.1,410.1 
		190,378.6 196.1,372 227.8,401.3 263.5,401.3 263.5,403.8 266,403.8 266,422.8 282.7,422.8 282.7,431.8 	"/>
	<path class="Wall" d="M196.2,374.8l30.9,28.5h34.5v2.5h2.5v18.9h16.7v5h-21.4v-2.5H259v-18.9h-32.9v-2.5l-1.7,1.8l-31.6-29.2
		L196.2,374.8 M196,369.2l-2.7,2.9l-3.4,3.7l-2.7,2.9l2.9,2.7l31.6,29.2l0.4,0.4v1.3h1.5l1.1,1l0.9-1h0.6H255v14.9v4h0.2v2.5h4h21.4
		h4v-4v-5v-4h-4H268v-14.9v-4h-2.5v-2.5h-4h-32.9l-29.7-27.4L196,369.2L196,369.2z"/>
</g>
<g>
	<rect x="192" y="373.8" transform="matrix(0.9727 -0.232 0.232 0.9727 -88.6398 56.6361)" width="9" height="62.7"/>
	<path class="Wall" d="M192.2,376.1l13.6,57.1l-4.9,1.2l-13.6-57.1L192.2,376.1 M195.1,371.3l-3.9,0.9l-4.9,1.2l-3.9,0.9l0.9,3.9
		l13.6,57.1l0.9,3.9l3.9-0.9l4.9-1.2l3.9-0.9l-0.9-3.9L196,375.2L195.1,371.3L195.1,371.3z"/>
</g>
<g>
	<rect x="268" y="481.2" width="62.2" height="9"/>
	<path class="Wall" d="M328.2,483.2v5H270v-5H328.2 M332.2,479.2h-4H270h-4v4v5v4h4h58.2h4v-4v-5V479.2L332.2,479.2z"/>
</g>
<g>
	<rect x="239.8" y="505.9" width="125.7" height="9"/>
	<path class="Wall" d="M363.4,507.9v5H241.8v-5L363.4,507.9 M367.4,503.9h-4H241.8h-4v4v5v4h4h121.7h4v-4v-5v-4H367.4z"/>
</g>
<g>
	<rect x="346.2" y="467.3" width="37.8" height="9"/>
	<path class="Wall" d="M381.9,469.3v5h-33.8v-5H381.9 M385.9,465.3h-4h-33.8h-4v4v5v4h4h33.8h4v-4v-5V465.3L385.9,465.3z"/>
</g>
<g>
	<polygon class="padding" points="388,576.7 388,530.5 368.8,530.5 365.6,534.3 358.7,528.5 419.4,456.6 426.3,462.4 376.4,521.5 423.5,521.5 
		423.5,530.5 397,530.5 397,576.7 	"/>
	<path class="Wall" d="M419.6,459.4l3.8,3.2L372,523.4h49.4v5H395v46.2h-5v-46.2h-22.1l-2.5,3l-3.8-3.2L419.6,459.4 M419.2,453.8
		l-2.6,3.1l-58.1,68.8l-2.6,3.1l3.1,2.6l3.8,3.2l3.1,2.6l2.6-3.1l1.3-1.6H386v42.2v4h4h5h4v-4v-42.2h22.6h4v-4v-5v-4h-4h-40.8
		l45.8-54.2l2.6-3.1l-3.1-2.6l-3.8-3.2L419.2,453.8L419.2,453.8z"/>
</g>
<polygon class="padding" class="padding" points="224.1,381.1 224.1,377.6 221.3,375.5 247,341.7 241.9,340.2 234.7,351.8 227.1,347.1 233,337.5 174.8,320.3 
	177.4,311.7 252.8,334 264.4,318.7 249.2,296.4 256.6,291.3 274.8,318 273.4,318.9 274.8,320 235.2,372.1 257.8,372.1 257.8,353.2 
	260.3,353.2 260.3,353 279.3,353 279.3,300.6 281.8,300.6 281.8,298.1 346.9,298.1 346.9,300.6 349.4,300.6 349.4,326.9 
	381.2,306.8 386,314.4 345.6,340 343.8,337.1 340.4,337.1 340.4,307.1 288.3,307.1 288.3,359.5 285.8,359.5 285.8,362 266.8,362 
	266.8,378.6 264.3,378.6 264.3,381.1 "/>
<path class="Wall" d="M256.1,294.1l16,23.4l-2.1,1.4l2,1.5l-40.8,53.8h28.7v-18.9h2.5V355h18.9v-24.4v-27.9h2.5v-2.5h61.1v2.5h2.5
	v27.9l33.2-21l2.7,4.2l-37,23.4l-1.3-2.1h-2.5v-30h-56.1v25.4v26.9h-2.5v2.5H265v16.7h-2.5v2.5h-36.3v-2.5l-2-1.5l26.2-34.6
	l-9.3-2.8l-6.9,11.2l-4.3-2.6l6.2-10.1L177.3,319l1.4-4.8l74.8,22.1l13.3-17.5l-14.9-21.9L256.1,294.1 M257.1,288.5l-3.3,2.3
	l-4.1,2.8l-3.3,2.3l2.3,3.3l13.3,19.5l-9.9,13l-72.2-21.4l-3.8-1.1L175,313l-1.4,4.8l-1.1,3.8l3.8,1.1l53.7,15.9l-3.5,5.6l-2.1,3.4
	l3.4,2.1l4.3,2.6l2.9,1.8l-14,18.4l-2.4,3.2l3.2,2.4l0.4,0.3v0.5v4h4h36.3h4v-2.5h2.5v-4V364h14.9h4v-2.5h2.5v-4v-26.9v-21.4h48.1
	v26v4h4h0.3l0.2,0.2l2.1,3.4l3.4-2.1l37-23.4l3.4-2.1l-2.1-3.4l-2.7-4.2l-2.1-3.4l-3.4,2.1l-27,17.1v-20.7v-4h-2.5v-2.5h-4H284h-4
	v2.5h-2.5v4V318l-1.9-2.8l-16-23.4L257.1,288.5L257.1,288.5z M276.8,319l0.5-0.3v0.7L276.8,319L276.8,319z M239.2,370.1l36-47.4
	l2.1-2.8v10.6V351h-14.9h-4v0.2h-2.5v4v14.9H239.2L239.2,370.1z M238.3,349.8l4.5-7.3l0.9,0.3L238.3,349.8L238.3,349.8z"/>
<path class="Wall" d="M309.4,598.5l0.5-6.1v-19.7h2.5v-2.5h43.8l0.2-0.3l0.5,0.3h0.6v0.4l36.6,25.7l27.4,2.2l11.6-54.6l8.8,1.9l-11.4,53.5l62.8,5
	l2.9-46.7l-32-12.6l3.3-8.4l29.4,11.5l5.1-82.6h-13.6V463h-2.5v-17.2h-23.7v-9h23.7v-1.2h9v20.9h7.6l5.1-81.2l-21.4-9l3.5-8.3
	l18.5,7.8l4.3-68.9l-43.9,3.2l-0.6-9l45.1-3.3l4.4-70.4l-50.3-0.5l-25.7,46.7l-7.9-4.3l5.5-10.1l-20.3-3.6l1.6-8.9l23.3,4.2
	l13.2-24.1l-266.3-2.6l9.8,32.8l27.8,0.4l-0.1,9l-48.8-0.7l0.1-9l11.6,0.2l-9.8-32.7l-60.3-0.6l0.4,38.1l48.1,12.6l-2.3,8.7
	l-45.7-12l1.1,100.4h42v9h-41.9l1.1,103.7h40.8v-34.7h9V491h14v9h-45.8v-9h22.8v-7.9h-40.7l0.6,52.7l39.1-14.7l3.2,8.4l-42.2,15.8
	l0.3,31.6l54.6,3.6l13.8-35.9l8.4,3.2l-12.8,33.3l86.7,5.6l0.4-8.8l-46.4-13.2l2.5-8.7l44.4,12.6v-0.2l9,0.5l-1.3,24.8l-2.5-0.1
	l-0.2,2.5L118,585.6l0.2-2.3h-2.3L112,207.2h2.5v-2.5l409.8,3.9v2.6l2.6,0.2l-15.3,245.3h0.3v9H511l-9.1,145.8l-2.5-0.2l-0.2,2.5
	L309.4,598.5z M376.4,594.9L354,579.2h-35.2v11L376.4,594.9z"/>
<path class="Wall" d="M116.4,206.6l405.8,3.9v2.5l2.5,0.2l-15.3,245.4h0.5v5h-0.8L500,609.3l-2.5-0.2l-0.2,2.5l-185.8-14.9l0.3-4.2
	v-17.7h2.5v-2.5h41.1v2.5l1.4-2l36.5,25.6l29.7,2.4l11.6-54.4l4.9,1L428.1,601l67.1,5.4l3.1-50.2l-31.6-12.3l1.8-4.7l30.1,11.7
	l5.4-87.4h-13.7V461h-2.5v-17.2h-23.7v-5h23.7v-1.2h5v20.9h11.5l5.4-87l-0.9,2.2l-20.1-8.4l1.9-4.6l19.3,8.1l4.6-74l-44.2,3.2
	l-0.4-5l44.8-3.2l4.6-74.3l-53.6-0.5l-25.3,46l-4.4-2.4l5.9-10.8l-21-3.8l0.9-4.9l22.7,4.1l15.5-28.3l-272.3-2.6l11,36.8l27.3,0.4
	l-0.1,5l-44.8-0.7l0.1-5l12.3,0.2l-11-36.7l-63.8-0.6l0.4,41.6l47.7,12.5l-1.3,4.8l-46.3-12.2l1.1,105h42v5h-41.9l1.1,107.7h44.8
	v-34.7h5V493h14v5h-41.8v-5h22.8v-11.9h-44.7l0.6,57.5l39.9-15l1.8,4.7L122.4,544l0.4,34.9l57.9,3.8l13.6-35.4l4.7,1.8l-13,34
	l91.4,6l0.6-12.4l-46-13l1.4-4.8l44.9,12.7v-0.7l5,0.3l-1,20.8l-2.5-0.1l-0.2,2.5L120.2,584l0.2-2.5h-2.5L114,209.4h2.5L116.4,206.6
	 M383.5,597.4l-28.9-20.2h-37.8v14.9L383.5,597.4 M112.4,202.6v2.6h-2.6v4l3.9,372.1v4h2.2l-0.1,2.2l4,0.3l159.4,10.4l4,0.3l0.2-2.6
	l2.6,0.1l0.2-4l1-20.8l0.2-4l-4-0.2l-5-0.3l-2.6-0.1l-41.4-11.8l-3.8-1.1l-1.1,3.8l-1.4,4.8l-1.1,3.8l3.8,1.1l42.9,12.2l-0.3,5.2
	l-81.9-5.3l11.1-28.9l1.4-3.7l-3.7-1.4l-4.7-1.8l-3.7-1.4l-1.4,3.7L178,578.4l-51.3-3.3l-0.3-28.4l39-14.6l3.7-1.4l-1.4-3.7
	l-1.8-4.7l-1.4-3.7l-3.7,1.4l-34.6,13l-0.5-47.8h36.7v3.9h-18.8h-4v4v5v4h4h41.8h4v-4v-5v-4h-4h-10v-47.6v-4h-4h-5h-4v4v30.7h-36.8
	l-1-99.7h37.9h4v-4v-5v-4h-4h-38l-1-95.8l41.3,10.8l3.9,1l1-3.9l1.3-4.8l1-3.9l-3.9-1l-44.7-11.7l-0.4-34.5l56.8,0.5l8.6,28.7
	l-6.9-0.1l-4-0.1l-0.1,4l-0.1,5l-0.1,4l4,0.1l44.8,0.7l4,0.1l0.1-4l0.1-5l0.1-4l-4-0.1l-24.3-0.4l-8.6-28.8l260.2,2.5l-10.9,19.9
	l-19.9-3.6l-3.9-0.7l-0.7,3.9l-0.9,4.9l-0.7,3.9l3.9,0.7l15.6,2.8l-3.2,5.9L431,260l3.5,1.9l4.4,2.4l3.5,1.9l1.9-3.5l24.1-43.9
	l47,0.5l-4.1,66.6l-41.3,3l-4,0.3l0.3,4l0.4,5l0.3,4l4-0.3l39.6-2.9l-4,63.8l-14.1-5.9l-3.7-1.5l-1.5,3.7l-1.9,4.6l-1.5,3.7l3.7,1.5
	l18.3,7.7l-4.9,77.9h-3.8v-16.9v-4h-4h-5h-4v1.2h-19.7h-4v4v5v4h4h19.7V461v4h2.5v2.5h4h9.4l-4.8,77.7l-25-9.7l-3.7-1.5l-1.5,3.7
	l-1.8,4.7l-1.5,3.7l3.7,1.5l28.8,11.3l-2.7,43.2l-58.5-4.7l10.5-49.3l0.8-3.9l-3.9-0.8l-4.9-1l-3.9-0.8l-0.8,3.9L420,596.4l-25.1-2
	l-35.3-24.8v-1.4h-1.9l-1.6-1.1l-0.8,1.1h-40.8h-4v2.5H308v4v17.6l-0.3,4.1l-0.3,4l4,0.3L497,615.6l4,0.3l0.2-2.6l2.6,0.2l0.2-4
	l8.8-142h1v-4v-5v-4h-0.2l15-241.1l0.2-4l-2.7-0.2v-2.7h-4l-405.8-3.9H112.4L112.4,202.6z M320.8,581.2h32.6l15.8,11.1l-48.4-3.9
	V581.2L320.8,581.2z"/>
<g>
	
		<rect x="294.2" y="519.6" transform="matrix(5.626421e-02 -0.9984 0.9984 5.626421e-02 -267.5955 817.5699)" width="9" height="61.5"/>
	<path class="Wall" d="M270.1,546.2l57.4,3.2l-0.3,5l-57.4-3.2L270.1,546.2 M266.3,542l-0.2,4l-0.3,5l-0.2,4l4,0.2l57.4,3.2l4,0.2
		l0.2-4l0.3-5l0.2-4l-4-0.2l-57.4-3.2L266.3,542L266.3,542z"/>
</g>
<g>
	
		<rect x="344.6" y="530.8" transform="matrix(2.972941e-02 -0.9996 0.9996 2.972941e-02 -215.5872 887.1045)" width="9" height="47.5"/>
	<path class="Wall" d="M327.5,551.4l43.5,1.3l-0.1,5l-43.5-1.3L327.5,551.4 M323.6,547.3l-0.1,4l-0.1,5l-0.1,4l4,0.1l43.5,1.3l4,0.1
		l0.1-4l0.1-5l0.1-4l-4-0.1l-43.5-1.3L323.6,547.3L323.6,547.3z"/>
</g>
<g>
	<polygon class="padding" points="229.8,541 232.3,523.4 234.5,523.7 234.5,521.5 272.5,521.5 276,511 284.5,513.8 276.7,537.4 268.2,534.6 
		269.5,530.5 240.4,530.5 238.7,542.3 	"/>
	<path class="Wall" d="M277.3,513.5l4.7,1.6l-6.6,19.8l-4.7-1.6l1.6-4.8h-33.6L237,540l-4.9-0.7l2-13.6l2.5,0.4v-2.5h36.6v2.7
		L277.3,513.5 M274.7,508.5l-1.3,3.8l-2.4,7.2h-34.6h-4v1.9l-1.9-0.3l-0.6,4l-2,13.6l-0.6,4l4,0.6l4.9,0.7l4,0.6l0.6-4l1.2-8.1h24.6
		l-1.1,3.4l3.8,1.3l4.7,1.6l3.8,1.3l1.3-3.8l6.6-19.8l1.3-3.8l-3.8-1.3l-4.7-1.6L274.7,508.5L274.7,508.5z"/>
</g>
<g>
	<polygon class="padding" points="209.1,472.9 191,472.9 191,463.9 207.8,463.9 205.6,448 214.5,446.8 216.9,463.9 218.3,463.9 218.3,472.9 
		218.2,472.9 220.2,487.1 211.3,488.4 	"/>
	<path class="Wall" d="M212.8,449l2.4,16.9h1.1v5h-0.4l2.1,14.4l-5,0.7l-2.2-15.2H193v-5h17.1l-2.3-16.2L212.8,449 M216.2,444.5
		l-4,0.6l-5,0.7l-4,0.6l0.6,4l1.7,11.6H193h-4v4v5v4h4h14.4l1.7,11.7l0.6,4l4-0.6l5-0.7l4-0.6l-0.6-4l-1.6-11.3v-2.6v-5v-4h-1.6
		l-1.9-13.5L216.2,444.5L216.2,444.5z"/>
</g>
<g>
	<polygon class="padding" points="236.6,439.2 230.2,443.9 224.8,436.7 230.2,432.7 221.5,423.8 227.9,417.5 237.5,427.2 246.9,420.2 252.3,427.4 
		243.9,433.7 252.6,442.6 246.2,448.9 	"/>
	<path class="Wall" d="M227.9,420.3l9.4,9.5l9.2-6.9l3,4l-8.7,6.5l9,9.1l-3.6,3.5l-9.5-9.6l-6.2,4.6l-3-4l5.6-4.2l-8.9-9.1
		L227.9,420.3 M227.9,414.7l-2.8,2.8l-3.6,3.5l-2.8,2.8l2.8,2.8l5.7,5.8l-2,1.5l-3.2,2.4l2.4,3.2l3,4l2.4,3.2l3.2-2.4l3.4-2.5l7,7.1
		l2.8,2.8l2.8-2.8l3.6-3.5l2.8-2.8l-2.8-2.8l-5.7-5.8l5-3.8l3.2-2.4l-2.4-3.2l-3-4l-2.4-3.2l-3.2,2.4l-6.4,4.8l-7-7.1L227.9,414.7
		L227.9,414.7z"/>
</g>
<g>
	<polygon class="padding" points="139.1,459.8 139.1,389.2 148.1,389.2 148.1,390.7 177.5,390.7 176.6,383 185.5,381.9 189.2,412.5 180.3,413.6 
		178.6,399.7 148.1,399.7 148.1,459.8 	"/>
	<path class="Wall" d="M183.8,384.1l3.2,26.6l-5,0.6l-1.7-13.7H146v60.2h-5v-66.6h5v1.4h33.7l-1-7.9L183.8,384.1 M187.3,379.7l-4,0.5
		l-5,0.6l-4,0.5l0.5,4l0.4,3.4h-25.1v-1.4h-4h-5h-4v4v66.6v4h4h5h4v-4v-56.2h26.7l1.2,10.2l0.5,4l4-0.5l5-0.6l4-0.5l-0.5-4
		l-3.2-26.6L187.3,379.7L187.3,379.7z"/>
</g>
<g>
	<rect x="203.8" y="327.6" transform="matrix(0.422 -0.9066 0.9066 0.422 -196.2004 390.686)" width="9" height="43.2"/>
	<path class="Wall" d="M191.6,338.7l35.5,16.6l-2.1,4.5l-35.5-16.6L191.6,338.7 M189.7,333.4L188,337l-2.1,4.5l-1.7,3.6l3.6,1.7
		l35.5,16.6l3.6,1.7l1.7-3.6l2.1-4.5l1.7-3.6l-3.6-1.7L193.3,335L189.7,333.4L189.7,333.4z"/>
</g>
<g>
	<rect x="180.9" y="332.3" transform="matrix(0.925 -0.38 0.38 0.925 -117.2763 96.3505)" width="9" height="25.8"/>
	<path class="Wall" d="M183.6,334.1l8.3,20.1l-4.6,1.9L179,336L183.6,334.1 M185.8,328.9l-3.7,1.5l-4.6,1.9l-3.7,1.5l1.5,3.7
		l8.3,20.1l1.5,3.7l3.7-1.5l4.6-1.9l3.7-1.5l-1.5-3.7l-8.3-20.1L185.8,328.9L185.8,328.9z"/>
</g>
<g>
	<rect x="139.4" y="324.7" transform="matrix(0.9982 -6.017089e-02 6.017089e-02 0.9982 -19.5126 10.4285)" width="48" height="9"/>
	<path class="Wall" d="M185.3,325.4l0.3,5l-44,2.6l-0.3-5L185.3,325.4 M189,321.2l-4,0.2l-44,2.6l-4,0.2l0.2,4l0.3,5l0.2,4l4-0.2
		l44-2.6l4-0.2l-0.2-4l-0.3-5L189,321.2L189,321.2z"/>
</g>
<g>
	<rect x="135.5" y="280.5" width="9" height="38.1"/>
	<path class="Wall" d="M142.5,282.5v34.1h-5v-34.1H142.5 M146.5,278.5h-4h-5h-4v4v34.1v4h4h5h4v-4v-34.1V278.5L146.5,278.5z"/>
</g>
<g>
	<rect x="132.9" y="305.6" transform="matrix(0.944 -0.33 0.33 0.944 -92.5097 75.2038)" width="84.7" height="9"/>
	<path class="Wall" d="M212.5,294.4l1.7,4.7L138,325.8l-1.7-4.7L212.5,294.4 M214.9,289.3l-3.8,1.3L135,317.3l-3.8,1.3l1.3,3.8
		l1.7,4.7l1.3,3.8l3.8-1.3l76.1-26.6l3.8-1.3l-1.3-3.8l-1.7-4.7L214.9,289.3L214.9,289.3z"/>
</g>
<g>
	<polygon class="padding" points="242.7,267 244.2,237.5 236.3,234.6 239.4,226.2 269.8,237.4 266.7,245.9 253,240.8 251.7,267.5 	"/>
	<path class="Wall" d="M240.6,228.8l26.6,9.8l-1.7,4.7l-14.3-5.3l-1.4,27.4l-5-0.2l1.5-29l-7.4-2.7L240.6,228.8 M238.2,223.6
		l-1.4,3.8l-1.7,4.7l-1.4,3.8l3.8,1.4l4.6,1.7l-1.3,26l-0.2,4l4,0.2l5,0.2l4,0.2l0.2-4l1.1-22l9.2,3.4l3.8,1.4l1.4-3.8l1.7-4.7
		l1.4-3.8l-3.8-1.4L242,225L238.2,223.6L238.2,223.6z"/>
</g>
<polygon class="padding" points="255.1,281.9 254.2,282.2 252.7,277.5 246.5,265.6 254.5,261.4 259.6,271.1 389.7,231.2 392.3,239.8 263.8,279.2 
	271.3,293.5 263.3,297.6 "/>
<path class="Wall" d="M388.3,233.7l1.5,4.8L260.9,278l7.6,14.6l-4.4,2.3l-8.1-15.4l-0.6,0.2l-0.9-3l-5.4-10.3l4.4-2.3l4.9,9.4
	L388.3,233.7 M391,228.7l-3.8,1.2l-126.6,38.8l-3.4-6.5l-1.9-3.5l-3.5,1.9l-4.4,2.3l-3.5,1.9l1.9,3.5l5.2,10l0.8,2.6l1.2,3.8
	l1.2-0.4l6.5,12.5l1.9,3.5l3.5-1.9l4.4-2.3l3.5-1.9l-1.9-3.5l-5.4-10.3L391,242.3l3.8-1.2l-1.2-3.8l-1.5-4.8L391,228.7L391,228.7z"
	/>
<rect x="298.2" y="215.6" transform="matrix(1 -5.858855e-03 5.858855e-03 1 -1.3248 1.7774)" width="9" height="22.8"/>
<path class="Wall" d="M305.1,217.5l0.1,18.8h-5l-0.1-18.8H305.1 M309.1,213.5h-4h-5h-4v4l0.1,18.8v4h4h5h4v-4l-0.1-18.8V213.5
	L309.1,213.5z"/>
<g>
	<polygon class="padding" points="439.1,356 439,356 439.1,354.2 439.1,352.5 439.3,352.5 441.4,327.2 417.6,323.2 417.3,323.5 416.9,323.1 
		416.2,323 416.3,322.6 387.9,295.7 394.1,289.1 421,314.6 448.9,319.3 448.5,321.6 450.9,321.8 448.1,354.6 448.4,386.7 
		486.3,386.7 486.3,395.7 448.5,395.7 449.4,487.7 440.4,487.8 	"/>
	<path class="Wall" d="M394.2,292l25.9,24.6l26.5,4.4l-0.4,2.5l2.5,0.2l-2.6,30.9l0.3,34.2h37.8v5h-37.8l0.9,92h-5L441,354.5h2.5
		l-2.5-0.2l2.4-28.7l-25-4.2l0.4-2.5l-1.7,1.8l-26.5-25.1L394.2,292 M394.1,286.3l-2.8,2.9l-3.4,3.6l-2.8,2.9l2.9,2.8l26.1,24.8
		l-0.2,1.3l2,0.3l1.5,1.4l0.9-1l20.9,3.5l-1.8,21.6h-0.3v3.7l-0.3,3.7h0.3l1.3,127.9v4h4h5h4v-4l-0.9-87.9h33.7h4v-4v-5v-4h-4h-33.9
		l-0.3-30.1l2.6-30.7l0.3-4l-2.2-0.2l0.4-2.1l-3.9-0.7l-25.3-4.2l-25-23.7L394.1,286.3L394.1,286.3z"/>
</g>
<g>
	<polygon class="padding" points="444.6,304 444.3,304.4 443.4,303.9 442.3,303.7 442.4,303.3 407.1,282.4 411.7,274.6 446.4,295.2 496.4,302.1 
		495.1,311.1 	"/>
	<path class="Wall" d="M412.4,277.4l33.3,19.8l48.3,6.7l-0.7,5l-48.8-6.8l0.3-2.5l-1.3,2.2l-33.8-20L412.4,277.4 M411,271.9l-2,3.4
		l-2.5,4.3l-2,3.4l3.4,2l32.4,19.2l-0.2,1.1l2.7,0.4l2.3,1.4l0.6-1l47.2,6.6l4,0.5l0.6-4l0.7-5l0.6-4l-4-0.5l-47.5-6.6l-32.6-19.3
		L411,271.9L411,271.9z"/>
</g>
<g>
	<polygon class="padding" points="462.9,359.5 462.9,321.4 471.9,321.4 471.9,323.5 491.9,324.2 491.6,333.2 471.9,332.5 471.9,359.5 	"/>
	<path class="Wall" d="M469.9,323.4v2.1l19.9,0.6l-0.2,5l-19.8-0.6v27h-5v-34.1H469.9 M473.9,319.4h-4h-5h-4v4v34.1v4h4h5h4v-4v-22.9
		l15.6,0.5l4,0.1l0.1-4l0.2-5l0.1-4l-4-0.1l-16-0.5L473.9,319.4L473.9,319.4z"/>
</g>
<g>
	<rect x="462.1" y="412" width="27" height="9"/>
	<path class="Wall" d="M487.1,414v5h-23v-5H487.1 M491.1,410h-4h-23h-4v4v5v4h4h23h4v-4v-5V410L491.1,410z"/>
</g>
<g>
	<rect x="460.7" y="460.7" transform="matrix(0.2899 -0.9571 0.9571 0.2899 -129.5604 786.4801)" width="9" height="39.8"/>
	<path class="Wall" d="M448.9,473l34.3,10.4l-1.4,4.8l-34.3-10.4L448.9,473 M446.2,468l-1.2,3.8l-1.4,4.8l-1.2,3.8l3.8,1.2l34.3,10.4
		l3.8,1.2l1.2-3.8l1.4-4.8l1.2-3.8l-3.8-1.2L450,469.2L446.2,468L446.2,468z"/>
</g>
<g>
	<path d="M434.8,522l0.1-0.1l-6-3.6l12.5-21l1.5,0.9l0.4-1.7l17.5,4.2l-0.6,2.5l2.5,0.7l-7.5,27.9l-3-0.8l-1.9,2.5L434.8,522z
		 M448.8,521.1l3.6-13.2l-5.9-1.4l-5.4,9L448.8,521.1z"/>
	<path class="Wall" d="M444.8,498.9l13.6,3.2l-0.6,2.4l2.4,0.7l-6.5,24l-2.4-0.7l-1.5,2l-12.4-9.1l3-4l9.4,6.9l4.9-18l-9.4-2.2
		l-9.5,16l-4.3-2.6L442,500l2.1,1.3L444.8,498.9 M441.9,494.1l-0.2,1l-0.9-0.5l-2.1,3.4l-10.5,17.5l-2.1,3.4l3.4,2.1l2.7,1.6
		l2.9,2.1l12.4,9.1l3.2,2.4l2.2-3l3.6,1l1-3.9l6.5-24l1-3.9l-2.5-0.7l0.6-2.5l-3.9-0.9l-13.6-3.2L441.9,494.1L441.9,494.1z
		 M443.7,514.9l3.7-6.1l2.5,0.6l-2.3,8.4L443.7,514.9L443.7,514.9z"/>
</g>
<g id="Star">
	<polygon class="st1" points="304.5,405.8 294.9,400 284.6,404.6 287.2,393.7 279.6,385.4 290.8,384.5 296.4,374.7 300.7,385.1 
		311.7,387.3 303.2,394.7 	"/>
</g>
<ellipse class="st2" cx="483.6" cy="258.1" rx="16.2" ry="11.4"/>
<circle class="st2" cx="464.2" cy="576.1" r="13.1"/>
<ellipse class="st2" cx="155.1" cy="558.5" rx="15.1" ry="10.4"/>
<circle class="st2" cx="153.8" cy="233.6" r="10.2"/>
<g id="Red">
	<line class="st3" x1="475.6" y1="392.5" x2="475.6" y2="417.4"/>
	<line class="st3" x1="283.8" y1="441.4" x2="309.9" y2="441.4"/>
	<line class="st3" x1="243.8" y1="405.2" x2="243.8" y2="376.6"/>
	<line class="st3" x1="280.7" y1="345.2" x2="311.7" y2="344"/>
	<line class="st3" x1="349.1" y1="376.6" x2="344.9" y2="405.2"/>
	<line class="st3" x1="445.6" y1="330.5" x2="464.2" y2="335.1"/>
	<line class="st3" x1="384.5" y1="347.8" x2="431.3" y2="323.4"/>
	<line class="st3" x1="317.5" y1="488.3" x2="320.6" y2="457.8"/>
	<line class="st3" x1="196.6" y1="468.4" x2="168.9" y2="478.6"/>
</g>
</svg>
