<?xml version="1.0" encoding="utf-8"?>
<!-- Generator: Adobe Illustrator 27.8.0, SVG Export Plug-In . SVG Version: 6.00 Build 0)  -->
<svg version="1.1" id="Maze" xmlns="http://www.w3.org/2000/svg" xmlns:xlink="http://www.w3.org/1999/xlink" x="0px" y="0px"
	 viewBox="0 0 612 432" style="enable-background:new 0 0 612 432;" xml:space="preserve">
<style type="text/css">
	.st0{fill:none;stroke:#000000;stroke-width:5;stroke-miterlimit:10;}
	.st1{fill:#FFF200;stroke:#000000;stroke-miterlimit:10;}
	.st2{fill:#2E3192;stroke:#000000;stroke-miterlimit:10;}
	.st3{fill:none;stroke:#ED1C24;stroke-width:5;stroke-miterlimit:10;}
</style>
<g id="Wall">
	<line class="st0" x1="329" y1="181.6" x2="329" y2="160.2"/>
	<line class="st0" x1="331.3" y1="160.2" x2="309.9" y2="160.2"/>
	<line class="st0" x1="283.8" y1="162.5" x2="262.3" y2="162.5"/>
	<line class="st0" x1="262.3" y1="160.2" x2="262.3" y2="181.6"/>
	<line class="st0" x1="261.5" y1="210.8" x2="261.5" y2="232.2"/>
	<line class="st0" x1="259.3" y1="232.2" x2="280.7" y2="232.2"/>
	<line class="st0" x1="306.8" y1="230" x2="328.2" y2="230"/>
	<line class="st0" x1="328.2" y1="232.2" x2="328.2" y2="210.8"/>
	<line class="st0" x1="262.3" y1="181.6" x2="226.1" y2="181.6"/>
	<line class="st0" x1="261.5" y1="210.8" x2="226.1" y2="210.8"/>
	<line class="st0" x1="283.8" y1="162.5" x2="283.8" y2="135.5"/>
	<line class="st0" x1="309.9" y1="160.2" x2="309.9" y2="135.5"/>
	<line class="st0" x1="283.8" y1="135.5" x2="283.8" y2="107.6"/>
	<line class="st0" x1="344.9" y1="107.6" x2="283.8" y2="107.6"/>
	<line class="st0" x1="344.9" y1="140.1" x2="344.9" y2="107.6"/>
	<line class="st0" x1="309.9" y1="140.1" x2="331.3" y2="140.1"/>
	<line class="st0" x1="333.9" y1="151.8" x2="331.3" y2="140.1"/>
	<line class="st0" x1="356" y1="152.4" x2="333.9" y2="151.8"/>
	<line class="st0" x1="329" y1="181.6" x2="381.9" y2="181.6"/>
	<line class="st0" x1="355.5" y1="254.4" x2="355.5" y2="210.8"/>
	<line class="st0" x1="328.2" y1="210.8" x2="355.5" y2="210.8"/>
	<line class="st0" x1="283.8" y1="232.6" x2="283.8" y2="266.1"/>
	<line class="st0" x1="309.9" y1="230" x2="309.9" y2="262.8"/>
	<line class="st0" x1="344.9" y1="262.8" x2="309.9" y2="262.8"/>
	<line class="st0" x1="355.5" y1="249.3" x2="376.7" y2="249.3"/>
	<line class="st0" x1="376.7" y1="210.8" x2="376.7" y2="249.3"/>
	<line class="st0" x1="344.9" y1="262.8" x2="344.9" y2="290.7"/>
	<line class="st0" x1="376.7" y1="210.8" x2="401.4" y2="210.8"/>
	<line class="st0" x1="401.4" y1="254.4" x2="401.4" y2="210.8"/>
	<line class="st0" x1="356" y1="152.4" x2="355.5" y2="170.9"/>
	<line class="st0" x1="404" y1="170.9" x2="355.5" y2="170.9"/>
	<line class="st0" x1="381.9" y1="147.9" x2="381.9" y2="170.9"/>
	<line class="st0" x1="344.9" y1="140.1" x2="381.9" y2="116.7"/>
	<line class="st0" x1="226.1" y1="181.6" x2="270" y2="123.9"/>
	<line class="st0" x1="254" y1="100.5" x2="270" y2="123.9"/>
	<line class="st0" x1="226.1" y1="210.8" x2="194.5" y2="181.6"/>
	<line class="st0" x1="203.4" y1="238.8" x2="189.7" y2="181.6"/>
	<line class="st0" x1="283.8" y1="266.1" x2="239.7" y2="266.1"/>
	<line class="st0" x1="243.8" y1="301.1" x2="239.7" y2="266.1"/>
	<line class="st0" x1="270" y1="290.7" x2="328.2" y2="290.7"/>
	<line class="st0" x1="241.8" y1="315.4" x2="363.4" y2="315.4"/>
	<line class="st0" x1="348.2" y1="276.8" x2="381.9" y2="276.8"/>
	<line class="st0" x1="363.4" y1="334.9" x2="421.5" y2="266.1"/>
	<line class="st0" x1="178" y1="121.6" x2="254.5" y2="144.2"/>
	<line class="st0" x1="120.2" y1="386.2" x2="116.3" y2="14.1"/>
	<line class="st0" x1="522.2" y1="18" x2="116.3" y2="14.1"/>
	<line class="st0" x1="497.5" y1="414.1" x2="522.2" y2="18"/>
	<line class="st0" x1="120.2" y1="386.2" x2="279.6" y2="396.6"/>
	<line class="st0" x1="311.7" y1="399.2" x2="497.5" y2="414.1"/>
	<line class="st0" x1="279.6" y1="396.6" x2="280.7" y2="375.8"/>
	<line class="st0" x1="270" y1="353.7" x2="327.4" y2="357"/>
	<line class="st0" x1="314.4" y1="399.4" x2="314.4" y2="379.7"/>
	<line class="st0" x1="355.5" y1="379.7" x2="314.4" y2="379.7"/>
	<line class="st0" x1="327.4" y1="358.9" x2="370.9" y2="360.2"/>
	<line class="st0" x1="392.5" y1="331" x2="392.5" y2="379.7"/>
	<line class="st0" x1="421.5" y1="331" x2="366.7" y2="331"/>
	<line class="st0" x1="355.5" y1="379.7" x2="392.5" y2="405.7"/>
	<line class="st0" x1="425.4" y1="406.7" x2="437.1" y2="351.8"/>
	<line class="st0" x1="500.9" y1="359.6" x2="467.6" y2="346.6"/>
	<line class="st0" x1="182.6" y1="389.5" x2="196.6" y2="353.1"/>
	<line class="st0" x1="119.8" y1="347.2" x2="163.1" y2="331"/>
	<line class="st0" x1="116.8" y1="60.2" x2="166.4" y2="73.2"/>
	<line class="st0" x1="184.5" y1="14.8" x2="196.6" y2="55"/>
	<line class="st0" x1="464.4" y1="17.5" x2="438.4" y2="64.8"/>
	<line class="st0" x1="517.3" y1="97.1" x2="470.2" y2="100.5"/>
	<line class="st0" x1="280.7" y1="379.7" x2="232.6" y2="366.1"/>
	<line class="st0" x1="234.5" y1="344.6" x2="236.5" y2="331"/>
	<line class="st0" x1="273.1" y1="331" x2="236.5" y2="331"/>
	<line class="st0" x1="273.1" y1="339.1" x2="279.6" y2="319.3"/>
	<line class="st0" x1="118.3" y1="283.6" x2="168.9" y2="283.6"/>
	<line class="st0" x1="168.9" y1="246.4" x2="168.9" y2="300.5"/>
	<line class="st0" x1="143.6" y1="300.5" x2="185.4" y2="300.5"/>
	<line class="st0" x1="193" y1="273.4" x2="216.3" y2="273.4"/>
	<line class="st0" x1="210.3" y1="254.4" x2="215.4" y2="290.7"/>
	<line class="st0" x1="226.1" y1="227.1" x2="248" y2="249.3"/>
	<line class="st0" x1="248" y1="230" x2="229.1" y2="244.1"/>
	<line class="st0" x1="143.6" y1="262.8" x2="143.6" y2="196.2"/>
	<line class="st0" x1="181.3" y1="200.2" x2="143.6" y2="200.2"/>
	<line class="st0" x1="184.5" y1="216.1" x2="181.3" y2="189.4"/>
	<line class="st0" x1="226.1" y1="162.5" x2="190.5" y2="145.9"/>
	<line class="st0" x1="239.7" y1="140.1" x2="231.9" y2="152.8"/>
	<line class="st0" x1="118" y1="170.9" x2="162.4" y2="170.9"/>
	<line class="st0" x1="181.3" y1="140.1" x2="189.6" y2="160.2"/>
	<line class="st0" x1="185.4" y1="132.9" x2="141.5" y2="135.5"/>
	<line class="st0" x1="140" y1="121.6" x2="140" y2="87.5"/>
	<line class="st0" x1="137.1" y1="128.4" x2="213.3" y2="101.8"/>
	<line class="st0" x1="226.1" y1="57" x2="181.3" y2="56.3"/>
	<line class="st0" x1="247.3" y1="70.3" x2="248.8" y2="41.1"/>
	<line class="st0" x1="266.4" y1="45.9" x2="239.7" y2="36.1"/>
	<line class="st0" x1="254.8" y1="82.3" x2="389.1" y2="41.1"/>
	<line class="st0" x1="266.4" y1="98.8" x2="251.4" y2="70.3"/>
	<line class="st0" x1="302.6" y1="22.6" x2="302.7" y2="41.4"/>
	<line class="st0" x1="446" y1="50.9" x2="421.5" y2="46.6"/>
	<line class="st0" x1="392.5" y1="98.8" x2="419" y2="123.9"/>
	<line class="st0" x1="411.2" y1="84.5" x2="444.9" y2="104.5"/>
	<line class="st0" x1="493.8" y1="111.3" x2="444.9" y2="104.5"/>
	<line class="st0" x1="419" y1="123.9" x2="446.2" y2="128.4"/>
	<line class="st0" x1="443.6" y1="159.4" x2="446.2" y2="128.4"/>
	<line class="st0" x1="467.4" y1="162.5" x2="467.4" y2="128.4"/>
	<line class="st0" x1="489.7" y1="133.6" x2="467.4" y2="132.9"/>
	<line class="st0" x1="489.7" y1="168" x2="509.9" y2="176.5"/>
	<line class="st0" x1="443.6" y1="159.4" x2="444.9" y2="290.7"/>
	<line class="st0" x1="444" y1="196.2" x2="484.3" y2="196.2"/>
	<line class="st0" x1="487.1" y1="221.5" x2="464.1" y2="221.5"/>
	<line class="st0" x1="490.4" y1="246.4" x2="464.1" y2="246.4"/>
	<line class="st0" x1="490.4" y1="266.1" x2="490.4" y2="242.7"/>
	<line class="st0" x1="509.9" y1="266.1" x2="490.4" y2="266.1"/>
	<line class="st0" x1="448.2" y1="280.4" x2="482.5" y2="290.7"/>
	<line class="st0" x1="457.9" y1="309.6" x2="444.3" y2="306.3"/>
	<line class="st0" x1="433.8" y1="323.9" x2="444.3" y2="306.3"/>
	<line class="st0" x1="451.4" y1="333.6" x2="439" y2="324.5"/>
	<line class="st0" x1="457.9" y1="309.6" x2="451.4" y2="333.6"/>
</g>
<g id="Star">
	<polygon class="st1" points="304.5,210.8 294.9,205 284.6,209.6 287.2,198.7 279.6,190.4 290.8,189.5 296.4,179.7 300.7,190.1 
		311.7,192.3 303.2,199.7 	"/>
</g>
<g id="orb0">
	<ellipse class="st2" cx="483.6" cy="63.1" rx="16.2" ry="11.4"/>
</g>
<g id="orb1">
	<circle class="st2" cx="464.2" cy="381.1" r="13.1"/>
</g>
<g id="orb2">
	<ellipse class="st2" cx="155.1" cy="363.5" rx="15.1" ry="10.4"/>
</g>
<g id="orb3">
	<circle class="st2" cx="153.8" cy="38.6" r="10.2"/>
</g>
<g id="Red">
	<line class="st3" x1="475.6" y1="197.5" x2="475.6" y2="222.4"/>
	<line class="st3" x1="283.8" y1="246.4" x2="309.9" y2="246.4"/>
	<line class="st3" x1="243.8" y1="210.2" x2="243.8" y2="181.6"/>
	<line class="st3" x1="280.7" y1="150.2" x2="311.7" y2="149"/>
	<line class="st3" x1="349.1" y1="181.6" x2="344.9" y2="210.2"/>
	<line class="st3" x1="445.6" y1="135.5" x2="464.2" y2="140.1"/>
	<line class="st3" x1="384.5" y1="152.8" x2="431.3" y2="128.4"/>
	<line class="st3" x1="317.5" y1="293.3" x2="320.6" y2="262.8"/>
	<line class="st3" x1="196.6" y1="273.4" x2="168.9" y2="283.6"/>
</g>
</svg>
